<?xml version="1.0" standalone="no"?>
<!DOCTYPE svg PUBLIC "-//W3C//DTD SVG 1.1//EN" "http://www.w3.org/Graphics/SVG/1.1/DTD/svg11.dtd" >
<svg xmlns="http://www.w3.org/2000/svg">
<metadata></metadata>
<defs>
<font id="aaux_next_mediumregular" horiz-adv-x="1329" >
<font-face units-per-em="2048" ascent="1638" descent="-410" />
<missing-glyph horiz-adv-x="581" />
<glyph unicode="&#xfb02;" horiz-adv-x="1089" d="M102 860v133h101v88q0 168 88 258.5t284 90.5h334v-1182q0 -105 109 -113v-133q-130 3 -194 62.5t-64 183.5v1052h-185q-121 0 -172 -61t-51 -190v-56h195v-133h-195v-860h-149v860h-101z" />
<glyph unicode="&#xfb03;" horiz-adv-x="1683" d="M102 860v133h101v88q0 165 87 252t285 97v-130q-123 -7 -173 -65.5t-50 -185.5v-56h436v88q0 165 87.5 252t285.5 97v-130q-123 -7 -174 -66t-51 -185v-56h586v-993h-152v860h-434v-860h-148v860h-436v-860h-149v860h-101zM1339 1348q0 45 32 76.5t77 31.5q44 0 75 -31 t31 -77q0 -43 -31 -75t-75 -32t-76.5 32t-32.5 75z" />
<glyph unicode="&#xfb04;" horiz-adv-x="1675" d="M102 860v133h101v88q0 165 87 252t285 97v-130q-123 -7 -173 -65.5t-50 -185.5v-56h436v88q0 349 373 349h332v-1182q0 -105 111 -113v-133q-130 3 -194 62.5t-64 183.5v1052h-185q-121 0 -173 -61.5t-52 -189.5v-56h197v-133h-197v-860h-148v860h-436v-860h-149v860 h-101z" />
<glyph horiz-adv-x="2048" />
<glyph horiz-adv-x="2048" />
<glyph unicode="&#xd;" horiz-adv-x="2048" />
<glyph unicode=" "  horiz-adv-x="581" />
<glyph unicode="&#x09;" horiz-adv-x="581" />
<glyph unicode="&#xa0;" horiz-adv-x="581" />
<glyph unicode="!" horiz-adv-x="618" d="M195 96q0 47 33.5 81t80.5 34t81 -34t34 -81t-34 -80.5t-81 -33.5t-80.5 33.5t-33.5 80.5zM223 784v646h172v-646l-20 -389h-129z" />
<glyph unicode="&#x22;" horiz-adv-x="772" d="M135 1100v327q0 32 24 56t56 24q34 0 58 -24t24 -56v-327h-162zM475 1100v327q0 32 24 56t58 24t58 -24t24 -56v-327h-164z" />
<glyph unicode="#" horiz-adv-x="1447" d="M111 424l30 133h254l66 315h-252l29 134h254l92 424h135l-92 -424h317l92 424h138l-93 -424h254l-28 -134h-254l-70 -315h256l-29 -133h-254l-92 -424h-135l90 424h-317l-92 -424h-136l93 424h-256zM530 557h320l68 315h-320z" />
<glyph unicode="$" horiz-adv-x="1089" d="M102 418l134 33q49 -176 258 -201v444q-79 19 -134 39t-110.5 55.5t-84 90.5t-28.5 129q0 73 30.5 131t82 94t113.5 56.5t131 25.5v115h129v-115q206 -22 315 -195l-107 -78q-65 109 -208 136v-375q63 -16 110.5 -32.5t98.5 -44.5t84 -62.5t54 -86t21 -114.5 q0 -149 -107 -243.5t-261 -110.5v-109h-129v111q-145 14 -249 92t-143 215zM276 1008q0 -32 13 -58t31 -42t51 -31t57.5 -22.5t65.5 -18.5v342q-55 -3 -101.5 -19.5t-81.5 -55.5t-35 -95zM623 248q95 10 161 65t66 148q0 45 -18 78.5t-53 56t-70 36t-86 27.5v-411z" />
<glyph unicode="%" horiz-adv-x="1658" d="M111 1051q0 78 16.5 146t50.5 126.5t94.5 92.5t141.5 34t141.5 -33.5t94.5 -92t50.5 -126.5t16.5 -147t-16.5 -148t-50.5 -127.5t-94.5 -92.5t-141.5 -34t-141.5 34t-94.5 92.5t-50.5 127.5t-16.5 148zM238 1051q0 -279 176 -279t176 279q0 276 -176 276t-176 -276z M434 0l637 1430h152l-635 -1430h-154zM942 379q0 79 16.5 147.5t50.5 127t94.5 92.5t141.5 34t141.5 -34t94.5 -92.5t50.5 -127t16.5 -147.5t-16.5 -147t-50.5 -126.5t-94.5 -92t-141.5 -33.5t-141.5 33.5t-94.5 92t-50.5 126.5t-16.5 147zM1067 379q0 -277 178 -277 q176 0 176 277q0 276 -176 276q-178 0 -178 -276z" />
<glyph unicode="&#x26;" horiz-adv-x="1386" d="M111 377q0 144 65 240.5t207 187.5q-72 104 -105.5 175t-33.5 155q0 138 88.5 223.5t226.5 85.5q137 0 223 -83.5t86 -219.5q0 -61 -21 -115t-62 -100t-86.5 -82t-108.5 -76q160 -214 377 -422q89 132 92 311h151q-3 -251 -133 -419q19 -17 77 -70.5t87 -77.5l-100 -106 q-14 11 -160 141q-161 -145 -422 -145q-192 0 -320 106t-128 291zM270 381q0 -82 45.5 -142.5t114 -88t148.5 -27.5q169 0 296 113q-218 207 -401 452q-69 -44 -110 -82.5t-67 -95.5t-26 -129zM393 1137q0 -104 115 -260q42 28 62 42t53.5 42.5t49.5 52t29 57t13 70.5 q0 70 -43 116t-113 46q-73 0 -119.5 -47t-46.5 -119z" />
<glyph unicode="'" horiz-adv-x="452" d="M143 1100v327q0 32 24 56t58 24t58 -24t24 -56v-327h-164z" />
<glyph unicode="(" horiz-adv-x="724" d="M137 715q0 195 82 387t232 328h172q-170 -146 -256 -336.5t-86 -378.5q0 -187 84.5 -375.5t255.5 -339.5h-170q-151 134 -232.5 326t-81.5 389z" />
<glyph unicode=")" horiz-adv-x="724" d="M137 0q171 151 255.5 339.5t84.5 375.5q0 188 -86 378.5t-254 336.5h170q151 -137 233.5 -328.5t82.5 -386.5q0 -196 -82.5 -388t-233.5 -327h-170z" />
<glyph unicode="*" horiz-adv-x="927" d="M100 1139l39 121l271 -99l-9 287h125l-8 -287l270 99l37 -121l-274 -80l176 -228l-102 -73l-162 237l-160 -237l-102 73l174 228z" />
<glyph unicode="+" horiz-adv-x="1052" d="M96 489v144h359v356h143v-356h358v-144h-358v-358h-143v358h-359z" />
<glyph unicode="," horiz-adv-x="438" d="M119 100q0 47 31.5 81t74.5 34q49 0 82 -33.5t33 -81.5v-100l-152 -270h-69v370z" />
<glyph unicode="-" horiz-adv-x="821" d="M129 492v129h563v-129h-563z" />
<glyph unicode="." horiz-adv-x="532" d="M150 102q0 47 34.5 81t81.5 34q49 0 83 -33.5t34 -81.5q0 -49 -33.5 -82.5t-83.5 -33.5q-48 0 -82 33.5t-34 82.5z" />
<glyph unicode="/" horiz-adv-x="870" d="M29 -156l663 1741h150l-664 -1741h-149z" />
<glyph unicode="0" horiz-adv-x="1196" d="M102 715q0 104 14 201.5t50 195.5t90.5 170t143 117t200.5 45q111 0 198.5 -45t142 -116.5t90 -169t49.5 -195t14 -201.5t-14 -201t-49.5 -195.5t-90 -171t-142 -118t-198.5 -45.5q-112 0 -200.5 45.5t-143 117.5t-90.5 170t-50 195t-14 201zM264 715q0 -58 4.5 -113.5 t16 -125t36 -126.5t60 -107t92 -78t127.5 -28t126.5 28t90.5 78t58.5 107t34.5 127t15.5 124.5t4.5 113.5q0 49 -3 96t-12 106t-23.5 109.5t-40 100.5t-59 85t-83 56.5t-109.5 21.5q-61 0 -112 -21.5t-85 -56.5t-60 -85t-40.5 -100t-23.5 -109.5t-12 -106.5t-3 -96z" />
<glyph unicode="1" horiz-adv-x="774" d="M76 1194l336 236h125v-1430h-160v1225l-225 -152z" />
<glyph unicode="2" horiz-adv-x="1128" d="M125 0v111q21 120 71.5 220.5t113 169.5t133.5 128t137.5 107t120.5 95t87 104t33 122q0 111 -81 173t-195 62q-88 0 -162.5 -49.5t-118.5 -130.5l-137 78q139 256 416 256q194 0 318 -103.5t124 -287.5q0 -85 -31 -156t-82.5 -124.5t-114.5 -102t-131.5 -100t-130 -108 t-112.5 -136.5t-76 -174h709v-154h-891z" />
<glyph unicode="3" horiz-adv-x="1081" d="M98 270l146 60q33 -91 108.5 -141t175.5 -50q122 0 206.5 75t84.5 196q0 73 -26 126.5t-73 84.5t-104 45.5t-127 15.5v125q62 1 113 14t93 41t65.5 76.5t23.5 114.5q0 102 -82 170.5t-188 68.5q-89 0 -158.5 -47t-101.5 -127l-143 62q57 130 162 198t247 68 q176 0 299 -110t123 -283q0 -104 -50 -183t-142 -122q106 -42 167.5 -131.5t61.5 -206.5q0 -191 -128 -307.5t-321 -116.5q-328 0 -432 284z" />
<glyph unicode="4" horiz-adv-x="1124" d="M78 352v144l588 934h170l-580 -928h496v506l151 -21v-485h129v-150h-129v-352h-151v352h-674z" />
<glyph unicode="5" horiz-adv-x="1101" d="M113 291l149 47q34 -91 106.5 -143t170.5 -52q150 0 230.5 97t80.5 245q0 144 -80 239t-229 95q-141 0 -246 -102h-145v713h759v-152h-614v-399q111 86 252 86q218 0 339.5 -132.5t121.5 -347.5q0 -224 -123.5 -359.5t-347.5 -135.5q-155 0 -263.5 79t-160.5 222z" />
<glyph unicode="6" horiz-adv-x="1112" d="M98 496q0 274 129 521.5t351 412.5h196q-390 -290 -491 -693q104 166 295 166q197 0 318.5 -132t121.5 -331q0 -200 -126 -327t-327 -127q-106 0 -195 40.5t-148 110t-91.5 162t-32.5 197.5zM264 446q0 -123 89 -212t212 -89q125 0 210 87t85 212q0 131 -83 220.5 t-214 89.5q-125 0 -212 -91t-87 -217z" />
<glyph unicode="7" horiz-adv-x="1019" d="M74 1159v271h872v-138q-106 -133 -183.5 -263t-140.5 -287.5t-94.5 -344t-29.5 -397.5h-172q0 733 442 1278h-555v-119h-139z" />
<glyph unicode="8" horiz-adv-x="1107" d="M94 414q0 115 60.5 208.5t181.5 145.5q-94 39 -144.5 124t-50.5 175q0 167 120.5 273t291.5 106q172 0 293 -106.5t121 -272.5q0 -57 -19.5 -112.5t-65.5 -107t-112 -79.5q124 -52 185 -144t61 -210q0 -194 -131 -312t-332 -118q-200 0 -329.5 117.5t-129.5 312.5z M256 418q0 -120 88 -199.5t209 -79.5q125 0 212 78.5t87 200.5q0 127 -85 201.5t-214 74.5q-128 0 -212.5 -74.5t-84.5 -201.5zM297 1063q0 -109 73.5 -173.5t182.5 -64.5t182.5 64.5t73.5 173.5q0 103 -76 170t-180 67q-103 0 -179.5 -67t-76.5 -170z" />
<glyph unicode="9" horiz-adv-x="1091" d="M88 985q0 196 126.5 328.5t322.5 132.5q107 0 194.5 -41.5t144 -112t87 -162.5t30.5 -196q0 -269 -120.5 -518t-346.5 -416h-204q88 69 156.5 134t137.5 150t118 187.5t75 218.5q-94 -147 -283 -147q-191 0 -314.5 126.5t-123.5 315.5zM242 993q0 -122 83.5 -209.5 t206.5 -87.5q128 0 209.5 87.5t81.5 211.5q0 121 -85 209t-208 88q-122 0 -205 -89t-83 -210z" />
<glyph unicode=":" horiz-adv-x="532" d="M150 98q0 47 34.5 82t81.5 35q49 0 83 -34.5t34 -82.5q0 -49 -33.5 -82.5t-83.5 -33.5q-48 0 -82 33.5t-34 82.5zM150 729q0 49 34.5 84t81.5 35q49 0 83 -34.5t34 -84.5q0 -48 -34 -82.5t-83 -34.5q-47 0 -81.5 35t-34.5 82z" />
<glyph unicode=";" horiz-adv-x="466" d="M119 100q0 46 31.5 79.5t74.5 33.5q49 0 82 -33.5t33 -79.5v-102l-152 -268h-69v370zM119 729q0 49 32.5 84t77.5 35q46 0 78.5 -35t32.5 -84q0 -47 -32.5 -82t-78.5 -35q-44 0 -77 35t-33 82z" />
<glyph unicode="&#x3c;" horiz-adv-x="1009" d="M106 715l590 715h197l-588 -715l588 -715h-197z" />
<glyph unicode="=" horiz-adv-x="1083" d="M117 248v141h850v-141h-850zM117 674v139h850v-139h-850z" />
<glyph unicode="&#x3e;" horiz-adv-x="1009" d="M119 0l588 715l-588 715h196l588 -715l-588 -715h-196z" />
<glyph unicode="?" horiz-adv-x="1032" d="M90 1071q3 91 39.5 164t96 118.5t133.5 69t155 23.5q179 0 298.5 -102t119.5 -277q0 -59 -15 -105.5t-44 -79.5t-56.5 -53.5t-66.5 -42.5q-93 -52 -132 -101.5t-43 -129.5l-10 -172h-108q-15 150 -15 174q0 57 11.5 103.5t26.5 75.5t43.5 56.5t48 41.5t53.5 34 q80 47 102 67q57 50 57 132q0 111 -76 174.5t-194 63.5q-111 0 -193 -59.5t-88 -174.5h-143zM399 94q0 46 33.5 78.5t79.5 32.5q47 0 81 -32.5t34 -78.5q0 -47 -33.5 -79.5t-81.5 -32.5q-46 0 -79.5 32.5t-33.5 79.5z" />
<glyph unicode="@" horiz-adv-x="1486" d="M123 487q0 119 35.5 250.5t104.5 254.5t160 222.5t211.5 159.5t248.5 60q94 0 172 -34t132 -91t91 -134t54.5 -162.5t17.5 -176.5q0 -52 -20 -150t-21 -121l-37 -569l-131 8l12 211q-66 -106 -156 -173t-200 -67q-77 0 -138 33.5t-98 89t-56.5 122.5t-19.5 140 q0 100 37 211.5t100 208.5t159 160.5t202 63.5q139 0 219 -164q4 81 -12 160.5t-52 149.5t-101.5 113.5t-151.5 43.5q-90 0 -176 -38t-154 -102t-126 -148t-96 -175.5t-59.5 -184.5t-21.5 -176q0 -117 40.5 -223t121.5 -178l-70 -102q-110 85 -165.5 220.5t-55.5 286.5z M621 362q0 -43 9 -85.5t28 -82.5t54.5 -65t82.5 -25q76 0 147.5 52.5t118.5 130t75.5 163t28.5 154.5q0 42 -10.5 86.5t-31 87t-56.5 69.5t-82 27q-78 0 -148.5 -53.5t-116 -133t-72.5 -166.5t-27 -159z" />
<glyph unicode="A" horiz-adv-x="1304" d="M18 0l549 1430h170l549 -1430h-174l-154 410h-612l-153 -410h-175zM399 553h504l-252 668z" />
<glyph unicode="B" horiz-adv-x="1263" d="M150 0v1430h499q103 0 186 -21.5t149 -66.5t102 -122.5t36 -181.5q0 -89 -43.5 -167t-134.5 -128q118 -47 176 -137t58 -200q0 -109 -37.5 -189t-105.5 -126.5t-155.5 -68.5t-195.5 -22h-534zM313 156h371q56 0 100 5.5t89 21.5t74.5 42.5t48 71.5t18.5 106 q0 75 -26.5 127t-75 78.5t-103.5 37.5t-125 11h-371v-501zM313 797h344q67 0 118.5 10.5t96 36t68 74.5t23.5 120q0 58 -17.5 101t-46 69t-70.5 41.5t-84 21t-94 5.5h-338v-479z" />
<glyph unicode="C" horiz-adv-x="1212" d="M88 715q0 118 20 223t65 199.5t111.5 162.5t167 108t224.5 40q149 0 252.5 -53t204.5 -170l-117 -111q-78 87 -154 129.5t-186 42.5q-97 0 -172.5 -34.5t-121.5 -89.5t-76 -131.5t-41 -153.5t-11 -162t11 -162t41 -154t76 -132t121.5 -89.5t172.5 -34.5q111 0 188.5 44.5 t155.5 136.5l117 -109q-107 -127 -205.5 -180t-253.5 -53q-124 0 -224.5 40t-167.5 108t-112.5 162.5t-65.5 199.5t-20 223z" />
<glyph unicode="D" horiz-adv-x="1302" d="M150 0v1430h407q85 0 154.5 -6t127 -20.5t103 -33t81 -48.5t61.5 -62t44 -77.5t30 -92t18.5 -109.5t9 -124.5t2.5 -141.5t-2.5 -141.5t-9 -124.5t-18.5 -109.5t-30 -92t-44 -77.5t-61.5 -62t-81 -48.5t-103 -33t-127 -20.5t-154.5 -6h-407zM313 162h273q160 0 251 31.5 t134 103.5q20 32 31.5 74t16 108.5t5 104.5t0.5 131q0 92 -0.5 129.5t-5 105t-16 110.5t-31.5 77q-43 70 -134 101.5t-251 31.5h-273v-1108z" />
<glyph unicode="E" horiz-adv-x="1181" d="M150 0v1430h929v-160h-766v-455h670v-153h-670v-502h766v-160h-929z" />
<glyph unicode="F" horiz-adv-x="1140" d="M150 0v1430h909v-160h-748v-455h670v-151h-670v-664h-161z" />
<glyph unicode="G" horiz-adv-x="1280" d="M88 715q0 116 19.5 220.5t64 199t110.5 163.5t165 109.5t221 40.5q149 0 251 -56.5t201 -179.5l-116 -104q-75 92 -150 135t-186 43q-98 0 -173.5 -34.5t-120.5 -89t-73.5 -131.5t-38.5 -153t-10 -163q0 -85 10 -160.5t38.5 -153t73 -133t119 -90.5t171.5 -35 q77 0 136 26.5t96 70t61 105.5t33 127t9 140h-327v146h487v-758h-141v209q-55 -123 -143 -175t-216 -52q-122 0 -220 41t-162.5 110t-108 164t-62 199t-18.5 219z" />
<glyph unicode="H" horiz-adv-x="1347" d="M150 0v1430h163v-615h721v615h164v-1430h-164v662h-721v-662h-163z" />
<glyph unicode="I" horiz-adv-x="509" d="M172 0v1430h164v-1430h-164z" />
<glyph unicode="J" horiz-adv-x="1110" d="M55 313l158 43q32 -104 107.5 -157.5t183.5 -53.5q157 0 229 72.5t72 224.5v988h162v-992q0 -223 -117 -337.5t-346 -114.5q-354 0 -449 327z" />
<glyph unicode="K" horiz-adv-x="1175" d="M150 0v1430h163v-1430h-163zM332 719l557 711h184l-557 -709l610 -721h-200z" />
<glyph unicode="L" horiz-adv-x="1062" d="M150 0v1430h161v-1276h684v-154h-845z" />
<glyph unicode="M" horiz-adv-x="1513" d="M139 0v1430h162l455 -1188l458 1188h158v-1430h-164v1022l-391 -1022h-123l-391 1020v-1020h-164z" />
<glyph unicode="N" horiz-adv-x="1300" d="M150 0v1430h149l688 -1113v1113h164v-1430h-147l-691 1112v-1112h-163z" />
<glyph unicode="O" d="M88 715q0 117 18.5 221t62 199.5t108.5 163.5t164 108.5t223 40.5q125 0 224 -40.5t164 -108.5t108.5 -163.5t62 -199.5t18.5 -221t-18.5 -221t-62 -199.5t-108.5 -163.5t-164 -108.5t-224 -40.5q-124 0 -223 40.5t-164 108.5t-108.5 163.5t-62 199.5t-18.5 221zM252 715 q0 -71 7 -134.5t24 -130.5t48 -120.5t75 -96.5t110 -66.5t148 -23.5q99 0 174 35t119.5 89.5t72.5 132.5t37.5 153.5t9.5 161.5t-9.5 161.5t-37.5 153t-72.5 132t-119.5 89.5t-174 35q-98 0 -173 -35t-119.5 -89.5t-72 -132t-37.5 -153t-10 -161.5z" />
<glyph unicode="P" horiz-adv-x="1234" d="M150 0v1430h536q106 0 190 -22.5t148.5 -69.5t99.5 -126.5t35 -187.5q0 -213 -122 -308t-347 -95h-377v-621h-163zM313 772h369q55 0 98.5 6t85 23t69 44.5t44 73t16.5 105.5q0 75 -24.5 125.5t-70 76.5t-97.5 36t-121 10h-369v-500z" />
<glyph unicode="Q" d="M88 715q0 118 19 223t62.5 199.5t109 162.5t164 108t221.5 40q125 0 224.5 -41t164.5 -109.5t108 -164t61.5 -199t18.5 -219.5q0 -160 -28 -284.5t-109 -231.5l160 -199h-201l-72 88q-146 -106 -327 -106q-122 0 -220.5 41t-164 110t-109.5 164t-63 199t-19 219zM252 717 q0 -83 10.5 -158t39 -151t73 -130.5t118.5 -89t169 -34.5q114 0 206 69q-95 99 -204 113v131q96 -12 169.5 -45.5t151.5 -102.5q57 87 74.5 181t17.5 215q0 86 -9.5 161t-37.5 152.5t-72 132t-119 89t-173 34.5t-173 -34.5t-120 -88.5t-73 -131t-38 -152t-10 -161z" />
<glyph unicode="R" horiz-adv-x="1247" d="M150 0v1430h499q103 0 186.5 -23.5t147 -71t98.5 -125.5t35 -182q0 -156 -93 -254.5t-267 -124.5q49 -37 100 -121l324 -528h-191l-299 504q-39 66 -78.5 98.5t-107.5 32.5h-191v-635h-163zM313 780h336q140 0 221.5 56t81.5 192q0 71 -23.5 120t-66.5 75.5t-94.5 37.5 t-118.5 11h-336v-492z" />
<glyph unicode="S" horiz-adv-x="1239" d="M88 365l156 30q18 -71 57 -123t94 -81t116.5 -42.5t133.5 -13.5q62 0 121.5 16.5t111 49t83.5 86.5t32 121q0 62 -29.5 108.5t-79 74.5t-113.5 49.5t-135 38t-142 35t-135 47t-113.5 67t-79 100.5t-29.5 143q0 93 39 166t105.5 117t148 67t172.5 23q181 0 303 -68.5 t199 -220.5l-141 -65q-58 107 -145.5 153.5t-215.5 46.5q-52 0 -102 -11t-97 -35t-75.5 -68.5t-28.5 -104.5t37 -104t97 -67.5t137 -46t157 -40t157 -49.5t137 -73.5t97 -114t37 -168.5q0 -100 -43 -182.5t-115 -134.5t-162.5 -80.5t-189.5 -28.5q-463 0 -557 383z" />
<glyph unicode="T" horiz-adv-x="1148" d="M51 1270v160h1049v-160h-443v-1270h-163v1270h-443z" />
<glyph unicode="U" horiz-adv-x="1316" d="M135 602v828h162v-820q0 -80 8 -143.5t32 -126.5t63 -105t104.5 -68t154.5 -26t155 26t105 67.5t62 105t31 126.5t8 144v820h164v-828q0 -620 -525 -620q-524 0 -524 620z" />
<glyph unicode="V" horiz-adv-x="1198" d="M33 1430h170l397 -1190l395 1190h170l-483 -1430h-166z" />
<glyph unicode="W" horiz-adv-x="1669" d="M47 1430h166l264 -1160l285 1160h143l287 -1160l264 1160h166l-334 -1430h-184l-270 1120l-271 -1120h-182z" />
<glyph unicode="X" horiz-adv-x="1247" d="M49 0l479 737l-452 693h196l353 -553l350 553h194l-452 -693l481 -737h-194l-379 596l-383 -596h-193z" />
<glyph unicode="Y" horiz-adv-x="1202" d="M47 1430h182l373 -771l373 771h182l-473 -957v-473h-164v473z" />
<glyph unicode="Z" horiz-adv-x="1198" d="M88 0v131l782 1139h-718v160h931v-140l-778 -1128h787v-162h-1004z" />
<glyph unicode="[" horiz-adv-x="614" d="M154 -139v1708h358v-101h-215v-1507h215v-100h-358z" />
<glyph unicode="\" horiz-adv-x="870" d="M29 1585h149l664 -1741h-150z" />
<glyph unicode="]" horiz-adv-x="614" d="M125 -39h215v1507h-215v101h360v-1708h-360v100z" />
<glyph unicode="^" horiz-adv-x="1099" d="M104 827l377 611h140l374 -611l-123 -65l-321 530l-326 -530z" />
<glyph unicode="_" horiz-adv-x="1075" d="M47 0h981v-129h-981v129z" />
<glyph unicode="`" horiz-adv-x="655" d="M154 1409h176l174 -313h-125z" />
<glyph unicode="a" horiz-adv-x="976" d="M84 285q0 134 92 212t252 83h154q28 1 46 3.5t41.5 13t39.5 28.5v82q0 73 -63 118t-140 45q-81 0 -146.5 -32t-95.5 -101l-133 45q86 228 379 228q133 0 238.5 -82.5t105.5 -208.5v-553l35 -150l-133 -32l-27 100q-130 -107 -289 -107q-154 0 -255 81t-101 227zM225 285 q0 -58 34.5 -99.5t82.5 -59t102 -17.5q146 0 265 110v279q-38 -22 -61.5 -27.5t-57.5 -5.5h-152q-89 -2 -151 -46.5t-62 -133.5z" />
<glyph unicode="b" horiz-adv-x="1021" d="M139 0v1430h154v-537q89 119 250 119q88 0 157 -28t113.5 -75t73.5 -114t41 -139.5t12 -157.5q0 -87 -12.5 -161t-42 -141t-75.5 -113.5t-116.5 -73.5t-161.5 -27q-78 0 -148.5 29.5t-109.5 97.5l-6 -109h-129zM293 348q0 -99 69 -158t168 -59q65 0 113.5 23t75 57.5 t42.5 86t20.5 97t4.5 101.5q0 46 -3.5 84.5t-12.5 83t-27 77.5t-45.5 62t-70 44t-97.5 15q-100 0 -168.5 -59.5t-68.5 -157.5v-297z" />
<glyph unicode="c" horiz-adv-x="972" d="M84 496q0 146 50 261t155 185t252 70q113 0 192 -39.5t160 -126.5l-111 -103q-55 60 -111 91.5t-130 31.5q-83 0 -143 -30.5t-92.5 -84.5t-47 -117t-14.5 -138t14.5 -137t47 -116.5t92.5 -85t143 -30.5q74 0 130 31.5t111 91.5l111 -103q-82 -87 -160 -125t-192 -38 q-147 0 -252 69t-155 183t-50 260z" />
<glyph unicode="d" horiz-adv-x="1038" d="M84 498q0 87 12.5 161t43 140t77 112.5t117.5 73.5t162 27q65 0 129.5 -27.5t105.5 -85.5v531h156v-1254q0 -2 18 -78t19 -80l-138 -38l-26 116q-93 -114 -266 -114q-92 0 -163.5 27t-117.5 73.5t-75.5 113t-41.5 140.5t-12 162zM240 498q0 -58 4.5 -103.5t20 -97.5 t42 -86t74.5 -57t113 -23q100 0 168.5 59.5t68.5 157.5v297q0 97 -68 157t-167 60q-66 0 -114.5 -22.5t-75 -56.5t-42 -85.5t-20 -96.5t-4.5 -103z" />
<glyph unicode="e" horiz-adv-x="995" d="M84 496q0 110 26 201.5t78.5 162.5t138.5 110.5t199 39.5q125 0 213.5 -62t130 -166t41.5 -241v-74h-667q10 -342 299 -342q152 0 243 102l101 -94q-73 -76 -155.5 -113.5t-188.5 -37.5q-227 0 -343 141t-116 373zM244 573h522q-14 293 -246 293q-128 0 -195.5 -77.5 t-80.5 -215.5z" />
<glyph unicode="f" horiz-adv-x="626" d="M102 860v133h101v88q0 165 87 252t285 97v-130q-123 -7 -173 -65.5t-50 -185.5v-56h195v-133h-195v-860h-149v860h-101z" />
<glyph unicode="g" horiz-adv-x="1013" d="M76 -115q0 41 12 78l137 -43q-4 -20 -4 -33q0 -47 42.5 -81.5t97.5 -49t108 -14.5q72 0 144.5 24t127 78t54.5 125q0 52 -38.5 79.5t-88.5 27.5q-52 0 -152 -21.5t-151 -21.5q-90 0 -152.5 39.5t-62.5 117.5q0 114 108 203q-135 83 -135 275q0 169 94.5 255.5t267.5 86.5 q157 0 246 -68q62 29 68 96h131q-7 -142 -117 -196q37 -84 37 -176q0 -164 -97.5 -250t-269.5 -86q-52 0 -112 14q-95 -60 -95 -137q0 -57 72 -57q59 0 172 26.5t170 26.5q108 0 180 -63t72 -165q0 -110 -70.5 -197t-174.5 -130t-216 -43q-73 0 -141.5 16t-129 47.5 t-97.5 87.5t-37 129zM270 668q0 -102 56 -153.5t159 -51.5q217 0 217 205q0 101 -56 150.5t-159 49.5t-160 -49.5t-57 -150.5z" />
<glyph unicode="h" horiz-adv-x="1048" d="M139 0v1430h154v-541q40 63 111 94t145 31q200 0 295.5 -121t95.5 -330v-563h-154v563q0 139 -57.5 218t-198.5 79q-86 0 -161.5 -59t-75.5 -146v-655h-154z" />
<glyph unicode="i" horiz-adv-x="471" d="M129 1348q0 46 31.5 77t75.5 31q45 0 76.5 -31.5t31.5 -76.5q0 -43 -32 -75t-76 -32t-75.5 32t-31.5 75zM158 0v993h153v-993h-153z" />
<glyph unicode="j" horiz-adv-x="471" d="M-61 -307q223 19 223 258v1042h151v-1052q0 -168 -83 -269t-250 -114zM131 1348q0 45 32 76.5t77 31.5t76.5 -31.5t31.5 -76.5q0 -43 -32 -75t-76 -32t-76.5 32t-32.5 75z" />
<glyph unicode="k" horiz-adv-x="919" d="M135 0v1430h150v-1430h-150zM297 535l358 458h166l-360 -456l432 -537h-174z" />
<glyph unicode="l" horiz-adv-x="464" d="M135 248v1182h148v-1182q0 -105 108 -113l2 -133q-131 3 -194.5 62.5t-63.5 183.5z" />
<glyph unicode="m" horiz-adv-x="1597" d="M139 0v993h131l4 -110q40 66 104.5 98.5t129.5 32.5q104 0 178.5 -41.5t128.5 -138.5q85 180 287 180q80 0 144 -22.5t107.5 -62t72.5 -96.5t42 -124t13 -146v-563h-156v563q0 64 -8 111.5t-30.5 92.5t-69 69t-115.5 24q-55 0 -95.5 -20t-63 -50.5t-36.5 -75t-18 -84 t-4 -87.5v-543h-156v563q0 50 -4.5 89.5t-19 80t-38.5 67t-65.5 43.5t-97.5 17q-81 0 -146 -59t-65 -137v-664h-154z" />
<glyph unicode="n" horiz-adv-x="1058" d="M139 0v993h131l4 -110q44 66 116.5 98.5t146.5 32.5q403 0 403 -451v-563h-154v559q0 70 -11.5 121.5t-39 93.5t-79 64t-126.5 22q-99 0 -168 -66.5t-69 -150.5v-643h-154z" />
<glyph unicode="o" horiz-adv-x="1028" d="M84 496q0 90 14 166t46 142t81.5 111t122.5 71t166 26q116 0 201 -39t134.5 -110t73 -162t23.5 -205t-23.5 -204.5t-73 -161.5t-134.5 -109.5t-201 -38.5t-200.5 38.5t-134 109.5t-72.5 161.5t-23 204.5zM240 496q0 -61 6 -109.5t23.5 -98t47 -82.5t79.5 -54t118 -21 q83 0 139.5 30t84.5 85t39 114t11 136q0 61 -6 109.5t-23.5 98t-47 83t-79.5 54.5t-118 21t-118 -21t-79.5 -54.5t-47 -83t-23.5 -98t-6 -109.5z" />
<glyph unicode="p" horiz-adv-x="1021" d="M139 -451v1444h131l4 -116q46 71 116.5 105t141.5 34q91 0 162 -28t116.5 -76t75 -115.5t42 -142t12.5 -160.5t-12.5 -159.5t-42.5 -139.5t-76 -112.5t-117 -73.5t-162 -27q-152 0 -237 118v-551h-154zM293 348q0 -88 70 -152.5t167 -64.5q65 0 113.5 23t75 57t42.5 85 t20.5 96.5t4.5 101.5q0 57 -4.5 102.5t-20.5 96.5t-42.5 85.5t-75 57t-113.5 22.5q-94 0 -165.5 -65.5t-71.5 -149.5v-295z" />
<glyph unicode="q" horiz-adv-x="1024" d="M82 496q0 87 12.5 161.5t42 142t75.5 114.5t117.5 74.5t162.5 27.5q74 0 145 -31.5t121 -93.5l24 117l138 -37l-35 -152v-1270h-156v545q-92 -112 -235 -112q-91 0 -162 27t-117.5 73.5t-77 112.5t-43 140t-12.5 161zM238 494q0 -58 4.5 -103.5t20.5 -97t43 -85.5 t75.5 -56.5t114.5 -22.5q96 0 164.5 63.5t68.5 155.5v295q0 91 -69.5 154t-165.5 63q-66 0 -114.5 -23t-75 -57t-42 -85.5t-20 -97t-4.5 -103.5z" />
<glyph unicode="r" horiz-adv-x="794" d="M139 0v993h131l4 -119q37 65 111 101.5t154 36.5q101 0 192 -49l-61 -125q-72 28 -131 28q-101 0 -173.5 -63t-72.5 -156v-647h-154z" />
<glyph unicode="s" horiz-adv-x="935" d="M82 240l137 34q47 -153 264 -153q38 0 75 8t72 25t57 49.5t22 75.5q0 50 -33.5 85t-86.5 54.5t-117.5 35.5t-129.5 35.5t-118 47.5t-86.5 79.5t-33.5 122.5q0 90 50 153.5t126.5 91.5t170.5 28q129 0 214 -42.5t148 -144.5l-121 -65q-71 112 -229 112q-33 0 -64.5 -5.5 t-65 -18.5t-53.5 -41t-20 -68q0 -39 26 -67t68 -43t96.5 -30.5t110.5 -28t110.5 -35.5t96.5 -52.5t68 -80t26 -117.5q0 -96 -56.5 -167t-140.5 -103.5t-180 -32.5q-101 0 -180.5 24t-139.5 83t-83 151z" />
<glyph unicode="t" horiz-adv-x="610" d="M66 860v133h139v289h153v-289h160v-133h-160v-602q0 -68 28.5 -95.5t96.5 -29.5v-133h-57q-111 0 -166 67t-55 179v614h-139z" />
<glyph unicode="u" horiz-adv-x="1052" d="M119 416v577h153v-569q0 -144 54.5 -217.5t199.5 -73.5q89 0 164.5 57.5t75.5 147.5v655h154v-993h-132l-4 104q-109 -120 -260 -120q-209 0 -307 109t-98 323z" />
<glyph unicode="v" horiz-adv-x="983" d="M43 993h166l278 -786l285 786h168l-379 -993h-141z" />
<glyph unicode="w" horiz-adv-x="1533" d="M41 993h166l225 -770l268 770h129l267 -772l233 772h164l-319 -993h-144l-266 745l-264 -745h-144z" />
<glyph unicode="x" horiz-adv-x="970" d="M39 0l356 510l-338 483h191l237 -352l238 352h188l-336 -483l355 -510h-187l-258 385l-256 -385h-190z" />
<glyph unicode="y" horiz-adv-x="987" d="M43 993h166l283 -800l288 800h164l-467 -1237q-42 -116 -120 -162.5t-203 -46.5h-29v136h27q82 0 122.5 28t65.5 92l72 193z" />
<glyph unicode="z" horiz-adv-x="964" d="M86 0v135l576 711h-537v147h739v-131l-579 -715h579v-147h-778z" />
<glyph unicode="{" horiz-adv-x="733" d="M102 647v135q40 -1 69.5 6.5t48.5 20.5t30.5 37t17 47t6.5 60t0 65.5t-2.5 74.5t-1.5 78q0 79 9.5 138t33.5 110t64.5 82.5t103.5 49.5t150 18v-131q-118 0 -168.5 -60.5t-50.5 -212.5q0 -28 1.5 -69.5t3 -70.5t0.5 -67t-5.5 -65.5t-15 -57.5t-27 -51t-44 -39.5 t-63.5 -29.5q41 -12 70.5 -33t46 -51t26 -59.5t11.5 -72.5t1 -75t-3 -81.5t-2 -78.5q0 -152 50.5 -212t168.5 -60v-131q-108 0 -180 26t-111 80t-54.5 122.5t-15.5 168.5q0 32 1.5 78t2.5 74.5t0 65.5t-6.5 60t-17 47t-30.5 37t-48.5 20.5t-69.5 6.5z" />
<glyph unicode="|" horiz-adv-x="538" d="M199 -156v1741h141v-1741h-141z" />
<glyph unicode="}" horiz-adv-x="733" d="M102 -8q117 0 167 60t50 212q0 27 -1.5 69.5t-2.5 71t0 67t5.5 65.5t15.5 57.5t27.5 51.5t43 39.5t62.5 29.5q-36 11 -62.5 29.5t-43 39.5t-27.5 51.5t-15.5 57.5t-5.5 65t0 67t2.5 71t1.5 69q0 152 -50 212.5t-167 60.5v131q87 0 150 -18t103.5 -49.5t64.5 -82.5 t33.5 -110t9.5 -138q0 -32 -1.5 -78t-2.5 -74.5t0 -65.5t6.5 -60t17 -47t30.5 -37t48.5 -20.5t69.5 -6.5v-135q-40 1 -69.5 -6.5t-48.5 -20.5t-30.5 -37t-17 -47t-6.5 -60t0 -65.5t2.5 -74.5t1.5 -78q0 -100 -15.5 -168.5t-54.5 -122.5t-111 -80t-180 -26v131z" />
<glyph unicode="~" horiz-adv-x="1001" d="M98 600q99 137 236 137q42 0 79.5 -13.5t65.5 -32t55.5 -37.5t61.5 -32.5t70 -13.5q84 0 141 94l96 -81q-56 -70 -109 -107t-124 -37q-50 0 -96.5 21t-77 45.5t-74 45.5t-88.5 21q-72 0 -141 -94z" />
<glyph unicode="&#xa1;" horiz-adv-x="655" d="M195 881q0 46 33.5 80t80.5 34t81 -34t34 -80q0 -49 -33.5 -83t-81.5 -34q-47 0 -80.5 34t-33.5 83zM223 190l21 392h131l20 -392v-645h-172v645z" />
<glyph unicode="&#xa2;" horiz-adv-x="1032" d="M121 496q0 146 50.5 259.5t159.5 183t265 69.5l31 145l88 -16l-29 -146q73 -16 130.5 -53t113.5 -96l-111 -101q-75 79 -164 103l-147 -699q46 -14 90 -14q67 6 119 36t102 85l111 -102q-84 -86 -162 -125t-190 -39q-51 0 -101 14l-35 -164l-88 17l37 167 q-136 60 -203 187t-67 289zM281 496q0 -107 28 -187t111 -139l147 694q-82 -6 -140.5 -39.5t-89 -87t-43.5 -112t-13 -129.5z" />
<glyph unicode="&#xa3;" horiz-adv-x="1091" d="M90 639l31 145h104q-37 145 -37 238q0 184 109 302t295 118q91 0 159 -23.5t113.5 -59.5t110.5 -106l-117 -98q-62 72 -119.5 105.5t-146.5 33.5q-124 0 -186 -78.5t-62 -201.5q0 -27 3.5 -60t7 -53t12 -62.5t10.5 -54.5h270l-33 -145h-208q24 -114 24 -201 q0 -138 -72 -291h631v-147h-827v121q117 179 117 332q0 74 -23 186h-166z" />
<glyph unicode="&#xa4;" horiz-adv-x="1333" d="M100 485l25 119h115q-5 83 -2 178h-138l25 117h129q18 119 61.5 217.5t112.5 173.5t170.5 116.5t226.5 41.5q131 0 226 -42.5t180 -133.5l-109 -119q-68 68 -136 100.5t-161 32.5q-169 0 -269.5 -105t-129.5 -282h467l-25 -117h-465q-2 -97 5 -178h485l-25 -119h-438 q39 -160 140 -251t255 -91q93 0 163.5 34.5t139.5 105.5l107 -117q-92 -100 -181 -142t-229 -42q-225 0 -372.5 135.5t-194.5 367.5h-158z" />
<glyph unicode="&#xa5;" horiz-adv-x="1181" d="M47 1430h156l389 -797l391 797h154l-324 -654h178l-26 -121h-211l-74 -151h311l-26 -121h-303v-383h-140v383h-332l27 121h289l-76 151h-240l27 121h154z" />
<glyph unicode="&#xa6;" horiz-adv-x="655" d="M270 -152v779h121v-779h-121zM270 805v780h121v-780h-121z" />
<glyph unicode="&#xa7;" horiz-adv-x="1132" d="M131 569q0 165 129 277q-88 88 -88 223q0 163 112.5 266t280.5 103q271 0 410 -281l-129 -67q-104 202 -281 202q-104 0 -172.5 -62t-68.5 -161q0 -40 15.5 -72t36 -51.5t60 -37t68 -26.5t80.5 -22q74 -19 126.5 -36.5t112.5 -49.5t97.5 -71.5t62.5 -100.5t25 -137 q0 -162 -127 -275q86 -91 86 -225q0 -163 -112.5 -264.5t-281.5 -101.5q-271 0 -409 280l129 68q105 -205 280 -205q104 0 173 63t69 160q0 41 -15.5 73t-36.5 52t-61 37.5t-68.5 26.5t-80.5 22q-73 19 -125.5 36.5t-112.5 49.5t-97 71t-62 99.5t-25 136.5zM283 569 q0 -46 19.5 -84.5t48.5 -64t73.5 -47.5t83.5 -34.5t90 -25.5q87 -18 160 -47q98 68 98 199q0 46 -19 84.5t-48 64t-73 47.5t-83.5 34.5t-91.5 25.5q-82 18 -158 49q-100 -69 -100 -201z" />
<glyph unicode="&#xa8;" horiz-adv-x="987" d="M197 1212q0 43 30 74t74 31q43 0 74 -31t31 -74q0 -44 -31 -74t-74 -30q-44 0 -74 30t-30 74zM584 1212q0 43 31 74t75 31q43 0 73 -31t30 -74q0 -44 -30 -74t-73 -30q-44 0 -75 30t-31 74z" />
<glyph unicode="&#xa9;" horiz-adv-x="1634" d="M96 713q0 196 97 362t263 262.5t361 96.5t361 -96.5t263 -262.5t97 -362q0 -145 -57.5 -278.5t-154 -230t-230 -153.5t-279.5 -57t-279.5 57t-230 153.5t-154 230t-57.5 278.5zM211 713q0 -164 81.5 -303.5t221 -220t303.5 -80.5q165 0 304.5 81t220.5 220t81 303 q0 165 -81 304.5t-220.5 220.5t-304.5 81q-164 0 -303.5 -81t-221 -220.5t-81.5 -304.5zM508 713q0 81 18.5 150.5t55.5 126t99 88.5t144 32q79 0 134 -28t108 -89l-72 -69q-40 43 -78 64.5t-92 21.5q-61 0 -105 -27t-66.5 -73t-32 -94.5t-9.5 -102.5t9.5 -101.5t32 -92.5 t66.5 -72t105 -27q56 0 95.5 22t76.5 66l72 -68q-58 -66 -109.5 -93.5t-132.5 -27.5q-82 0 -144.5 32t-100 87.5t-56 125t-18.5 149.5z" />
<glyph unicode="&#xaa;" horiz-adv-x="845" d="M96 866q0 109 75.5 173t205.5 69h117q75 0 102 25v67q0 58 -48.5 92.5t-107.5 34.5q-145 0 -192 -108l-117 34q80 195 311 195q107 0 194 -67.5t87 -170.5v-467l29 -81l-117 -35l-25 61q-110 -72 -223 -72q-125 0 -208 66t-83 184zM217 872q0 -66 51.5 -100.5 t120.5 -34.5q113 0 207 88v201q-48 -20 -94 -20q-107 0 -121 -2q-68 -2 -116 -35.5t-48 -96.5zM276 397v105h299v-105h-299z" />
<glyph unicode="&#xab;" horiz-adv-x="1042" d="M106 465v108l429 408v-170l-308 -291l308 -293v-172zM498 465v108l428 408v-170l-310 -291l310 -293v-172z" />
<glyph unicode="&#xac;" horiz-adv-x="1075" d="M98 481v121h869v-418h-117v297h-752z" />
<glyph unicode="&#xad;" horiz-adv-x="821" d="M129 492v129h563v-129h-563z" />
<glyph unicode="&#xae;" horiz-adv-x="1634" d="M96 713q0 196 97 362t263 262.5t361 96.5t361 -96.5t263 -262.5t97 -362q0 -145 -57.5 -278.5t-154 -230t-230 -153.5t-279.5 -57t-279.5 57t-230 153.5t-154 230t-57.5 278.5zM211 713q0 -164 81.5 -303.5t221 -220t303.5 -80.5q165 0 304.5 81t220.5 220t81 303 q0 165 -81 304.5t-220.5 220.5t-304.5 81q-164 0 -303.5 -81t-221 -220.5t-81.5 -304.5zM565 336v758h269q116 0 184.5 -55t68.5 -165q0 -77 -45 -135t-131 -69q6 -7 37 -54.5t81.5 -127t94.5 -152.5h-123l-145 250q-22 40 -44.5 58t-59.5 18h-88v-326h-99zM664 745h172 q153 0 153 127q0 125 -153 125h-172v-252z" />
<glyph unicode="&#xaf;" horiz-adv-x="1050" d="M227 1143v119h596v-119h-596z" />
<glyph unicode="&#xb0;" horiz-adv-x="651" d="M119 1354q0 84 60.5 144.5t144.5 60.5q86 0 146 -60t60 -145q0 -86 -60 -146.5t-146 -60.5q-84 0 -144.5 60.5t-60.5 146.5zM207 1354q0 -49 35 -85t82 -36q49 0 84.5 35.5t35.5 85.5q0 48 -35.5 83.5t-84.5 35.5q-47 0 -82 -36t-35 -83z" />
<glyph unicode="&#xb1;" horiz-adv-x="1087" d="M119 0v129h850v-129h-850zM119 573v132h358v356h133v-356h359v-132h-359v-354h-133v354h-358z" />
<glyph unicode="&#xb2;" horiz-adv-x="716" d="M78 532v72q14 76 46 139.5t72 107t85 81t87.5 68t77 60t55.5 65.5t21 77q0 71 -52.5 111.5t-125.5 40.5q-54 0 -100.5 -32t-75.5 -85l-86 51q89 162 262 162q124 0 202.5 -65.5t78.5 -182.5q0 -54 -19.5 -99t-52 -78.5t-72.5 -64.5t-83 -64t-81.5 -68.5t-71 -86.5 t-48.5 -110h448v-99h-567z" />
<glyph unicode="&#xb3;" horiz-adv-x="686" d="M61 705l95 36q21 -57 69 -88.5t109 -31.5q78 0 132 48t54 124q0 90 -58.5 131t-152.5 41v79q85 2 137 38.5t52 117.5q0 65 -52.5 109.5t-119.5 44.5q-56 0 -100 -30t-66 -81l-90 39q74 168 262 168q111 0 188.5 -69.5t77.5 -180.5q0 -135 -121 -192q67 -26 105.5 -83.5 t38.5 -131.5q0 -122 -80.5 -195.5t-202.5 -73.5q-212 0 -277 181z" />
<glyph unicode="&#xb4;" horiz-adv-x="632" d="M141 1096l174 313h177l-226 -313h-125z" />
<glyph unicode="&#xb6;" horiz-adv-x="1081" d="M113 1022q0 169 120.5 288.5t292.5 119.5h369v-1737h-141v1597h-107v-1597h-141v928q-169 10 -281 125t-112 276z" />
<glyph unicode="&#xb7;" horiz-adv-x="540" d="M141 543q0 54 37 91.5t90 37.5q55 0 93 -37.5t38 -91.5t-38 -91.5t-93 -37.5q-53 0 -90 37.5t-37 91.5z" />
<glyph unicode="&#xb8;" horiz-adv-x="1044" d="M356 -406l193 273l-66 153l101 35l75 -196l-143 -265h-160z" />
<glyph unicode="&#xb9;" horiz-adv-x="491" d="M47 1290l213 150h80v-908h-100v779l-144 -97z" />
<glyph unicode="&#xba;" horiz-adv-x="897" d="M98 1032q0 92 19 165.5t59.5 130.5t109.5 88.5t163 31.5q93 0 162 -31.5t109.5 -88.5t59.5 -130.5t19 -165.5q0 -192 -83.5 -304t-266.5 -112t-267 112t-84 304zM231 1030q0 -47 4.5 -84.5t18.5 -76.5t37.5 -65t63.5 -42.5t94 -16.5t94 16.5t63 42.5t37 65t18.5 76.5 t4.5 84.5q0 60 -8.5 106.5t-30 90.5t-66.5 68t-112 24t-112 -24t-67 -68t-30.5 -90.5t-8.5 -106.5zM303 397v105h297v-105h-297z" />
<glyph unicode="&#xbb;" horiz-adv-x="1042" d="M106 55v172l310 293l-310 291v170l426 -408v-108zM498 55v172l307 293l-307 291v170l428 -408v-108z" />
<glyph unicode="&#xbc;" horiz-adv-x="1574" d="M92 1290l250 150h66v-881h-115v717l-143 -84zM381 2l635 1428h123l-635 -1428h-123zM930 217v100l340 566h139l-330 -549h252l6 260l82 -16v-244h58v-117h-58v-215h-119v215h-370z" />
<glyph unicode="&#xbd;" horiz-adv-x="1652" d="M92 1290l252 150h66v-881h-115v717l-145 -84zM381 2l635 1428h123l-633 -1428h-125zM1014 2v92q32 83 76.5 152t128.5 153q115 113 155.5 168t40.5 95q0 57 -40.5 82.5t-88.5 25.5q-44 0 -80 -27t-73 -92l-105 54q99 180 258 180q62 0 117 -24t93 -76.5t38 -122.5 t-47 -138t-170 -188q-79 -75 -158 -217h375v-117h-520z" />
<glyph unicode="&#xbe;" horiz-adv-x="1720" d="M111 741l112 37q19 -48 57 -79t89 -31q62 0 105.5 42.5t43.5 102.5q0 61 -44 106.5t-105 45.5h-47v100h38q61 0 101.5 40.5t40.5 96.5q0 51 -42 89t-100 38q-46 0 -82.5 -28t-54.5 -72l-112 39q32 84 98.5 130t150.5 46q107 0 184 -71t77 -171q0 -102 -99 -182 q113 -85 113 -207q0 -109 -78 -185.5t-188 -76.5q-90 0 -157.5 50.5t-100.5 139.5zM526 2l635 1428h125l-637 -1428h-123zM1075 217v100l340 566h139l-327 -549h250l6 260l82 -16v-244h57v-117h-57v-215h-119v215h-371z" />
<glyph unicode="&#xbf;" horiz-adv-x="1032" d="M90 -90q1 -177 119 -278t299 -103q81 0 154.5 24t133.5 69t96.5 119t39.5 167l-144 -2q-6 -114 -89 -175t-191 -61q-118 0 -194.5 64.5t-75.5 173.5q0 19 2 36t8 31.5t10.5 25.5t17 23t18.5 18.5t23.5 17.5t24 15t28 15.5t27.5 15.5q43 27 67 46t55 55.5t45.5 88 t15.5 120.5l-13 180h-112l-11 -176q-3 -78 -41.5 -129t-130.5 -103q-40 -23 -66 -42.5t-56 -52t-45 -79t-15 -104.5zM397 883q0 46 32 79t79 33t80 -33t33 -79q0 -47 -33 -80t-80 -33t-79 33t-32 80z" />
<glyph unicode="&#xc0;" horiz-adv-x="1304" d="M18 0l549 1430h170l549 -1430h-174l-154 410h-612l-153 -410h-175zM342 1862h176l172 -314h-123zM399 553h504l-252 668z" />
<glyph unicode="&#xc1;" horiz-adv-x="1304" d="M18 0l549 1430h170l549 -1430h-174l-154 410h-612l-153 -410h-175zM399 553h504l-252 668zM608 1548l174 314h176l-223 -314h-127z" />
<glyph unicode="&#xc2;" horiz-adv-x="1304" d="M18 0l549 1430h170l549 -1430h-174l-154 410h-612l-153 -410h-175zM350 1550l228 305h145l231 -305h-161l-144 219l-139 -219h-160zM399 553h504l-252 668z" />
<glyph unicode="&#xc3;" horiz-adv-x="1304" d="M18 0l549 1430h170l549 -1430h-174l-154 410h-612l-153 -410h-175zM334 1657q41 62 84.5 91.5t107.5 29.5q41 0 76.5 -17t57 -37.5t52.5 -37.5t64 -17q60 0 109 78l86 -76q-46 -62 -88 -92.5t-103 -30.5q-41 0 -76 17t-57 37.5t-53.5 37.5t-65.5 17q-36 0 -60.5 -20 t-49.5 -56zM399 553h504l-252 668z" />
<glyph unicode="&#xc4;" horiz-adv-x="1304" d="M18 0l549 1430h170l549 -1430h-174l-154 410h-612l-153 -410h-175zM354 1665q0 43 30.5 73.5t74.5 30.5q43 0 73.5 -30.5t30.5 -73.5q0 -44 -30.5 -74t-73.5 -30q-44 0 -74.5 30t-30.5 74zM399 553h504l-252 668zM741 1665q0 43 31.5 73.5t75.5 30.5q41 0 71.5 -30.5 t30.5 -73.5q0 -44 -30 -74t-72 -30q-45 0 -76 30t-31 74z" />
<glyph unicode="&#xc5;" horiz-adv-x="1304" d="M18 0l549 1430h170l549 -1430h-174l-154 410h-612l-153 -410h-175zM399 553h504l-252 668zM432 1769q0 91 64.5 155.5t156.5 64.5q91 0 155 -64.5t64 -155.5t-64 -156t-155 -65q-92 0 -156.5 65t-64.5 156zM545 1769q0 -44 32 -75t76 -31q43 0 74 31t31 75t-31 75.5 t-74 31.5q-44 0 -76 -31.5t-32 -75.5z" />
<glyph unicode="&#xc6;" horiz-adv-x="1896" d="M25 0l798 1430h975v-160h-715v-451h621v-157h-621v-502h715v-160h-878v410h-486l-225 -410h-184zM512 553h408v688h-27z" />
<glyph unicode="&#xc7;" horiz-adv-x="1284" d="M123 715q0 118 20 223.5t65.5 199.5t112.5 162.5t167 108t223 39.5q101 0 185 -32.5t145 -84t130 -135.5l-116 -100q-81 98 -156 144t-188 46q-99 0 -175 -34t-122.5 -88.5t-75.5 -131.5t-40 -153.5t-11 -163.5t11 -163t40.5 -153.5t75.5 -132t122 -89t175 -34.5 q113 0 189 47t155 144l116 -101q-89 -107 -180.5 -169t-210.5 -76l60 -142l-135 -254h-162l180 263l-55 129q-117 7 -211 51t-155.5 112.5t-102.5 161.5t-58.5 193.5t-17.5 212.5z" />
<glyph unicode="&#xc8;" horiz-adv-x="1181" d="M150 0v1430h929v-160h-766v-455h670v-153h-670v-502h766v-160h-929zM416 1862h176l174 -314h-125z" />
<glyph unicode="&#xc9;" horiz-adv-x="1181" d="M150 0v1430h929v-160h-766v-455h670v-153h-670v-502h766v-160h-929zM416 1548l174 314h176l-225 -314h-125z" />
<glyph unicode="&#xca;" horiz-adv-x="1181" d="M150 0v1430h929v-160h-766v-455h670v-153h-670v-502h766v-160h-929zM313 1550l228 305h147l230 -305h-162l-142 219l-141 -219h-160z" />
<glyph unicode="&#xcb;" horiz-adv-x="1181" d="M150 0v1430h929v-160h-766v-455h670v-153h-670v-502h766v-160h-929zM291 1665q0 43 30.5 73.5t73.5 30.5t74 -30.5t31 -73.5q0 -44 -31 -74t-74 -30t-73.5 30t-30.5 74zM680 1665q0 43 30.5 73.5t73.5 30.5t74 -30.5t31 -73.5q0 -44 -31 -74t-74 -30t-73.5 30t-30.5 74z " />
<glyph unicode="&#xcc;" horiz-adv-x="509" d="M-53 1862h178l172 -314h-125zM172 0v1430h164v-1430h-164z" />
<glyph unicode="&#xcd;" horiz-adv-x="509" d="M164 1548l174 314h176l-223 -314h-127zM172 0v1430h164v-1430h-164z" />
<glyph unicode="&#xce;" horiz-adv-x="509" d="M-47 1550l229 305h146l229 -305h-160l-143 219l-141 -219h-160zM172 0v1430h164v-1430h-164z" />
<glyph unicode="&#xcf;" horiz-adv-x="509" d="M-43 1665q0 43 30.5 73.5t73.5 30.5t74 -30.5t31 -73.5q0 -44 -31 -74t-74 -30t-73.5 30t-30.5 74zM172 0v1430h164v-1430h-164zM346 1665q0 43 31 73.5t74 30.5t73.5 -30.5t30.5 -73.5q0 -44 -30.5 -74t-73.5 -30t-74 30t-31 74z" />
<glyph unicode="&#xd0;" horiz-adv-x="1339" d="M86 647v127h86v656h436q96 0 168 -7.5t147.5 -32t127 -67t89.5 -115t52 -172.5q16 -109 16 -321q0 -211 -16 -320q-10 -73 -32.5 -131t-53 -99t-73.5 -71t-88 -47.5t-103.5 -28.5t-112.5 -14.5t-121 -3.5h-436v647h-86zM334 162h274q56 0 93.5 1.5t82.5 7.5t75 17 t61.5 30.5t51.5 47.5t35.5 68.5t22.5 93.5q14 100 14 287q0 188 -14 286q-7 53 -23 94.5t-37 70t-53.5 48t-63 30.5t-75.5 17t-81 7.5t-89 1.5h-274v-496h305v-127h-305v-485z" />
<glyph unicode="&#xd1;" horiz-adv-x="1300" d="M150 0v1430h149l688 -1113v1113h164v-1430h-147l-691 1112v-1112h-163zM332 1657q41 62 84.5 91.5t107.5 29.5q41 0 76.5 -17t57 -37.5t52.5 -37.5t64 -17q60 0 109 78l86 -76q-46 -62 -88.5 -92.5t-104.5 -30.5q-40 0 -75 17t-57 37.5t-53.5 37.5t-64.5 17 q-36 0 -60.5 -20t-49.5 -56z" />
<glyph unicode="&#xd2;" d="M88 715q0 117 18.5 221t62 199.5t108.5 163.5t164 108.5t223 40.5q125 0 224 -40.5t164 -108.5t108.5 -163.5t62 -199.5t18.5 -221t-18.5 -221t-62 -199.5t-108.5 -163.5t-164 -108.5t-224 -40.5q-124 0 -223 40.5t-164 108.5t-108.5 163.5t-62 199.5t-18.5 221zM252 715 q0 -71 7 -134.5t24 -130.5t48 -120.5t75 -96.5t110 -66.5t148 -23.5q99 0 174 35t119.5 89.5t72.5 132.5t37.5 153.5t9.5 161.5t-9.5 161.5t-37.5 153t-72.5 132t-119.5 89.5t-174 35q-98 0 -173 -35t-119.5 -89.5t-72 -132t-37.5 -153t-10 -161.5zM489 1862h177l172 -314 h-123z" />
<glyph unicode="&#xd3;" d="M88 715q0 117 18.5 221t62 199.5t108.5 163.5t164 108.5t223 40.5q125 0 224 -40.5t164 -108.5t108.5 -163.5t62 -199.5t18.5 -221t-18.5 -221t-62 -199.5t-108.5 -163.5t-164 -108.5t-224 -40.5q-124 0 -223 40.5t-164 108.5t-108.5 163.5t-62 199.5t-18.5 221zM252 715 q0 -71 7 -134.5t24 -130.5t48 -120.5t75 -96.5t110 -66.5t148 -23.5q99 0 174 35t119.5 89.5t72.5 132.5t37.5 153.5t9.5 161.5t-9.5 161.5t-37.5 153t-72.5 132t-119.5 89.5t-174 35q-98 0 -173 -35t-119.5 -89.5t-72 -132t-37.5 -153t-10 -161.5zM489 1548l175 314h174 l-224 -314h-125z" />
<glyph unicode="&#xd4;" d="M88 715q0 117 18.5 221t62 199.5t108.5 163.5t164 108.5t223 40.5q125 0 224 -40.5t164 -108.5t108.5 -163.5t62 -199.5t18.5 -221t-18.5 -221t-62 -199.5t-108.5 -163.5t-164 -108.5t-224 -40.5q-124 0 -223 40.5t-164 108.5t-108.5 163.5t-62 199.5t-18.5 221zM252 715 q0 -71 7 -134.5t24 -130.5t48 -120.5t75 -96.5t110 -66.5t148 -23.5q99 0 174 35t119.5 89.5t72.5 132.5t37.5 153.5t9.5 161.5t-9.5 161.5t-37.5 153t-72.5 132t-119.5 89.5t-174 35q-98 0 -173 -35t-119.5 -89.5t-72 -132t-37.5 -153t-10 -161.5zM362 1550l228 305h145 l232 -305h-162l-143 219l-140 -219h-160z" />
<glyph unicode="&#xd5;" d="M88 715q0 117 18.5 221t62 199.5t108.5 163.5t164 108.5t223 40.5q125 0 224 -40.5t164 -108.5t108.5 -163.5t62 -199.5t18.5 -221t-18.5 -221t-62 -199.5t-108.5 -163.5t-164 -108.5t-224 -40.5q-124 0 -223 40.5t-164 108.5t-108.5 163.5t-62 199.5t-18.5 221zM252 715 q0 -71 7 -134.5t24 -130.5t48 -120.5t75 -96.5t110 -66.5t148 -23.5q99 0 174 35t119.5 89.5t72.5 132.5t37.5 153.5t9.5 161.5t-9.5 161.5t-37.5 153t-72.5 132t-119.5 89.5t-174 35q-98 0 -173 -35t-119.5 -89.5t-72 -132t-37.5 -153t-10 -161.5zM346 1657q41 62 85 91.5 t108 29.5q41 0 76.5 -17t56.5 -37.5t52 -37.5t64 -17q60 0 109 78l86 -76q-46 -62 -88 -92.5t-104 -30.5q-40 0 -75 17t-56.5 37.5t-53 37.5t-65.5 17q-36 0 -61 -20t-50 -56z" />
<glyph unicode="&#xd6;" d="M88 715q0 117 18.5 221t62 199.5t108.5 163.5t164 108.5t223 40.5q125 0 224 -40.5t164 -108.5t108.5 -163.5t62 -199.5t18.5 -221t-18.5 -221t-62 -199.5t-108.5 -163.5t-164 -108.5t-224 -40.5q-124 0 -223 40.5t-164 108.5t-108.5 163.5t-62 199.5t-18.5 221zM252 715 q0 -71 7 -134.5t24 -130.5t48 -120.5t75 -96.5t110 -66.5t148 -23.5q99 0 174 35t119.5 89.5t72.5 132.5t37.5 153.5t9.5 161.5t-9.5 161.5t-37.5 153t-72.5 132t-119.5 89.5t-174 35q-98 0 -173 -35t-119.5 -89.5t-72 -132t-37.5 -153t-10 -161.5zM367 1665q0 43 30 73.5 t74 30.5q42 0 73 -31t31 -73q0 -44 -31 -74t-73 -30q-44 0 -74 30t-30 74zM754 1665q0 43 31 73.5t75 30.5q42 0 72.5 -30.5t30.5 -73.5q0 -44 -30.5 -74t-72.5 -30q-44 0 -75 30t-31 74z" />
<glyph unicode="&#xd7;" horiz-adv-x="950" d="M125 303l258 258l-258 256l92 92l256 -258l260 258l90 -92l-256 -256l256 -258l-90 -90l-260 256l-256 -256z" />
<glyph unicode="&#xd8;" d="M88 715q0 117 18.5 221t62 199.5t108.5 163.5t164 108.5t223 40.5q150 0 282 -72l33 64h141l-73 -135q194 -203 194 -590q0 -117 -18.5 -221t-62 -199.5t-108.5 -163.5t-164 -108.5t-224 -40.5q-156 0 -287 77l-35 -69h-141l75 141q-188 205 -188 584zM252 715 q0 -263 106 -422l512 938q-93 55 -206 55q-82 0 -148 -23.5t-110 -66t-75 -95.5t-48 -120t-24 -131t-7 -135zM453 205q95 -62 211 -62q99 0 174 35t119.5 89.5t72.5 132.5t37.5 153.5t9.5 161.5q0 273 -112 428z" />
<glyph unicode="&#xd9;" horiz-adv-x="1316" d="M135 602v828h162v-820q0 -80 8 -143.5t32 -126.5t63 -105t104.5 -68t154.5 -26t155 26t105 67.5t62 105t31 126.5t8 144v820h164v-828q0 -620 -525 -620q-524 0 -524 620zM483 1862h176l175 -314h-125z" />
<glyph unicode="&#xda;" horiz-adv-x="1316" d="M135 602v828h162v-820q0 -80 8 -143.5t32 -126.5t63 -105t104.5 -68t154.5 -26t155 26t105 67.5t62 105t31 126.5t8 144v820h164v-828q0 -620 -525 -620q-524 0 -524 620zM483 1548l174 314h177l-226 -314h-125z" />
<glyph unicode="&#xdb;" horiz-adv-x="1316" d="M135 602v828h162v-820q0 -80 8 -143.5t32 -126.5t63 -105t104.5 -68t154.5 -26t155 26t105 67.5t62 105t31 126.5t8 144v820h164v-828q0 -620 -525 -620q-524 0 -524 620zM356 1550l230 305h145l230 -305h-160l-144 219l-141 -219h-160z" />
<glyph unicode="&#xdc;" horiz-adv-x="1316" d="M135 602v828h162v-820q0 -80 8 -143.5t32 -126.5t63 -105t104.5 -68t154.5 -26t155 26t105 67.5t62 105t31 126.5t8 144v820h164v-828q0 -620 -525 -620q-524 0 -524 620zM360 1665q0 43 30.5 73.5t74.5 30.5q43 0 73.5 -30.5t30.5 -73.5q0 -44 -30.5 -74t-73.5 -30 q-44 0 -74.5 30t-30.5 74zM748 1665q0 43 31 73.5t75 30.5q43 0 72.5 -30.5t29.5 -73.5q0 -44 -29.5 -74t-72.5 -30q-44 0 -75 30t-31 74z" />
<glyph unicode="&#xdd;" horiz-adv-x="1202" d="M47 1430h182l373 -771l373 771h182l-473 -957v-473h-164v473zM426 1548l174 314h176l-225 -314h-125z" />
<glyph unicode="&#xde;" horiz-adv-x="1284" d="M172 0v1430h164v-287h371q111 0 198 -22.5t152.5 -70t100 -126.5t34.5 -187q0 -109 -36.5 -188.5t-103.5 -125.5t-152.5 -67.5t-192.5 -21.5h-371v-334h-164zM336 494h371q58 0 101.5 5t87 21t71 42t44.5 70.5t17 104.5q0 75 -24.5 125t-71.5 75t-99.5 34.5t-125.5 9.5 h-371v-487z" />
<glyph unicode="&#xdf;" horiz-adv-x="1310" d="M135 0v991q0 96 21.5 176t66 142t119 96.5t172.5 34.5q96 0 168.5 -33t117.5 -92.5t68 -136.5t25 -170q99 -9 170 -51.5t125 -131.5l-121 -65q-68 112 -229 112q-33 0 -64.5 -5.5t-65 -18.5t-53.5 -41t-20 -68q0 -44 33.5 -73.5t86.5 -46.5t117.5 -32t129 -35.5 t117.5 -50.5t86.5 -85t33.5 -131q0 -96 -56.5 -167t-140.5 -103.5t-180 -32.5q-157 0 -264 61.5t-139 196.5l137 34q47 -153 264 -153q51 0 99 13t87 51t39 94q0 50 -33.5 85t-87 54.5t-118 35.5t-129 35.5t-118 47.5t-87 79.5t-33.5 122.5q0 110 73.5 175t186.5 81 q-4 293 -225 293q-227 0 -227 -305v-983h-152z" />
<glyph unicode="&#xe0;" horiz-adv-x="976" d="M84 285q0 134 92 212t252 83h154q28 1 46 3.5t41.5 13t39.5 28.5v82q0 73 -63 118t-140 45q-81 0 -146.5 -32t-95.5 -101l-133 45q86 228 379 228q133 0 238.5 -82.5t105.5 -208.5v-553l35 -150l-133 -32l-27 100q-130 -107 -289 -107q-154 0 -255 81t-101 227zM225 285 q0 -58 34.5 -99.5t82.5 -59t102 -17.5q146 0 265 110v279q-38 -22 -61.5 -27.5t-57.5 -5.5h-152q-89 -2 -151 -46.5t-62 -133.5zM313 1409h176l175 -313h-125z" />
<glyph unicode="&#xe1;" horiz-adv-x="976" d="M84 285q0 134 92 212t252 83h154q28 1 46 3.5t41.5 13t39.5 28.5v82q0 73 -63 118t-140 45q-81 0 -146.5 -32t-95.5 -101l-133 45q86 228 379 228q133 0 238.5 -82.5t105.5 -208.5v-553l35 -150l-133 -32l-27 100q-130 -107 -289 -107q-154 0 -255 81t-101 227zM225 285 q0 -58 34.5 -99.5t82.5 -59t102 -17.5q146 0 265 110v279q-38 -22 -61.5 -27.5t-57.5 -5.5h-152q-89 -2 -151 -46.5t-62 -133.5zM313 1096l174 313h177l-226 -313h-125z" />
<glyph unicode="&#xe2;" horiz-adv-x="976" d="M84 285q0 134 92 212t252 83h154q28 1 46 3.5t41.5 13t39.5 28.5v82q0 73 -63 118t-140 45q-81 0 -146.5 -32t-95.5 -101l-133 45q86 228 379 228q133 0 238.5 -82.5t105.5 -208.5v-553l35 -150l-133 -32l-27 100q-130 -107 -289 -107q-154 0 -255 81t-101 227zM186 1098 l230 305h145l230 -305h-160l-144 219l-141 -219h-160zM225 285q0 -58 34.5 -99.5t82.5 -59t102 -17.5q146 0 265 110v279q-38 -22 -61.5 -27.5t-57.5 -5.5h-152q-89 -2 -151 -46.5t-62 -133.5z" />
<glyph unicode="&#xe3;" horiz-adv-x="976" d="M84 285q0 134 92 212t252 83h154q28 1 46 3.5t41.5 13t39.5 28.5v82q0 73 -63 118t-140 45q-81 0 -146.5 -32t-95.5 -101l-133 45q86 228 379 228q133 0 238.5 -82.5t105.5 -208.5v-553l35 -150l-133 -32l-27 100q-130 -107 -289 -107q-154 0 -255 81t-101 227zM170 1204 q41 62 85 91.5t110 29.5q41 0 76 -17t56.5 -37t52.5 -37t64 -17q62 0 107 77l88 -75q-45 -61 -88.5 -92t-104.5 -31q-40 0 -75 17t-57 37t-53.5 37t-65.5 17q-58 0 -111 -76zM225 285q0 -58 34.5 -99.5t82.5 -59t102 -17.5q146 0 265 110v279q-38 -22 -61.5 -27.5 t-57.5 -5.5h-152q-89 -2 -151 -46.5t-62 -133.5z" />
<glyph unicode="&#xe4;" horiz-adv-x="976" d="M84 285q0 134 92 212t252 83h154q28 1 46 3.5t41.5 13t39.5 28.5v82q0 73 -63 118t-140 45q-81 0 -146.5 -32t-95.5 -101l-133 45q86 228 379 228q133 0 238.5 -82.5t105.5 -208.5v-553l35 -150l-133 -32l-27 100q-130 -107 -289 -107q-154 0 -255 81t-101 227zM190 1212 q0 43 30.5 74t74.5 31q43 0 73.5 -31t30.5 -74q0 -44 -30.5 -74t-73.5 -30q-44 0 -74.5 30t-30.5 74zM225 285q0 -58 34.5 -99.5t82.5 -59t102 -17.5q146 0 265 110v279q-38 -22 -61.5 -27.5t-57.5 -5.5h-152q-89 -2 -151 -46.5t-62 -133.5zM578 1212q0 43 31 74t75 31 q42 0 72 -31t30 -74q0 -44 -29.5 -74t-72.5 -30q-44 0 -75 30t-31 74z" />
<glyph unicode="&#xe5;" horiz-adv-x="976" d="M84 285q0 134 92 212t252 83h154q28 1 46 3.5t41.5 13t39.5 28.5v82q0 73 -63 118t-140 45q-81 0 -146.5 -32t-95.5 -101l-133 45q86 228 379 228q133 0 238.5 -82.5t105.5 -208.5v-553l35 -150l-133 -32l-27 100q-130 -107 -289 -107q-154 0 -255 81t-101 227zM225 285 q0 -58 34.5 -99.5t82.5 -59t102 -17.5q146 0 265 110v279q-38 -22 -61.5 -27.5t-57.5 -5.5h-152q-89 -2 -151 -46.5t-62 -133.5zM268 1317q0 91 64.5 155t156.5 64t157 -64t65 -155t-65 -156t-157 -65t-156.5 65t-64.5 156zM383 1317q0 -44 31 -75.5t75 -31.5q43 0 75 31.5 t32 75.5t-32 75t-75 31q-44 0 -75 -31t-31 -75z" />
<glyph unicode="&#xe6;" horiz-adv-x="1574" d="M76 285q0 138 94 216.5t254 78.5h137q28 0 43 1t42.5 11t41.5 31v77q0 69 -58 117.5t-136 48.5q-176 0 -238 -135l-135 41q41 110 136 172t239 62q188 0 290 -160q64 90 145.5 126t182.5 36q100 0 175.5 -40t119 -108.5t65 -152t21.5 -179.5v-63h-659q6 -163 80.5 -250.5 t213.5 -87.5q142 0 234 106l106 -100q-134 -151 -340 -151q-229 0 -335 153q-83 -86 -169.5 -122t-197.5 -36q-151 0 -251.5 79.5t-100.5 228.5zM217 293q0 -80 62 -127t153 -47q77 0 144.5 31.5t138.5 99.5q-27 85 -27 246q-51 -33 -113 -33h-149q-84 0 -146.5 -42.5 t-62.5 -127.5zM836 571h514q-5 134 -63.5 213.5t-176.5 79.5q-126 0 -197 -80.5t-77 -212.5z" />
<glyph unicode="&#xe7;" horiz-adv-x="972" d="M84 496q0 146 50 261t155 185t252 70q113 0 191 -39.5t161 -126.5l-111 -103q-55 60 -111 91.5t-130 31.5q-82 0 -142 -30.5t-92.5 -84.5t-47.5 -117t-15 -138q0 -74 15 -136.5t47.5 -117t92.5 -85t142 -30.5q74 0 130 31.5t111 91.5l111 -103q-70 -72 -138 -111.5 t-155 -47.5l55 -142l-137 -254h-162l183 265l-56 129q-131 13 -222.5 86t-134 181.5t-42.5 242.5z" />
<glyph unicode="&#xe8;" horiz-adv-x="995" d="M84 496q0 110 26 201.5t78.5 162.5t138.5 110.5t199 39.5q125 0 213.5 -62t130 -166t41.5 -241v-74h-667q10 -342 299 -342q152 0 243 102l101 -94q-73 -76 -155.5 -113.5t-188.5 -37.5q-227 0 -343 141t-116 373zM244 573h522q-14 293 -246 293q-128 0 -195.5 -77.5 t-80.5 -215.5zM322 1409h178l172 -313h-123z" />
<glyph unicode="&#xe9;" horiz-adv-x="995" d="M84 496q0 110 26 201.5t78.5 162.5t138.5 110.5t199 39.5q125 0 213.5 -62t130 -166t41.5 -241v-74h-667q10 -342 299 -342q152 0 243 102l101 -94q-73 -76 -155.5 -113.5t-188.5 -37.5q-227 0 -343 141t-116 373zM244 573h522q-14 293 -246 293q-128 0 -195.5 -77.5 t-80.5 -215.5zM322 1096l174 313h176l-226 -313h-124z" />
<glyph unicode="&#xea;" horiz-adv-x="995" d="M84 496q0 110 26 201.5t78.5 162.5t138.5 110.5t199 39.5q125 0 213.5 -62t130 -166t41.5 -241v-74h-667q10 -342 299 -342q152 0 243 102l101 -94q-73 -76 -155.5 -113.5t-188.5 -37.5q-227 0 -343 141t-116 373zM197 1098l227 305h147l230 -305h-162l-141 219 l-142 -219h-159zM244 573h522q-14 293 -246 293q-128 0 -195.5 -77.5t-80.5 -215.5z" />
<glyph unicode="&#xeb;" horiz-adv-x="995" d="M84 496q0 110 26 201.5t78.5 162.5t138.5 110.5t199 39.5q125 0 213.5 -62t130 -166t41.5 -241v-74h-667q10 -342 299 -342q152 0 243 102l101 -94q-73 -76 -155.5 -113.5t-188.5 -37.5q-227 0 -343 141t-116 373zM199 1212q0 43 30.5 74t73.5 31t74 -31t31 -74 q0 -44 -31 -74t-74 -30t-73.5 30t-30.5 74zM244 573h522q-14 293 -246 293q-128 0 -195.5 -77.5t-80.5 -215.5zM588 1212q0 43 30.5 74t73.5 31t74 -31t31 -74q0 -44 -31 -74t-74 -30t-73.5 30t-30.5 74z" />
<glyph unicode="&#xec;" horiz-adv-x="462" d="M-70 1409h179l172 -313h-123zM156 0v993h151v-993h-151z" />
<glyph unicode="&#xed;" horiz-adv-x="460" d="M154 0v993h151v-993h-151zM178 1096l174 313h176l-223 -313h-127z" />
<glyph unicode="&#xee;" horiz-adv-x="460" d="M-72 1098l230 305h145l229 -305h-161l-142 219l-141 -219h-160zM158 0v993h151v-993h-151z" />
<glyph unicode="&#xef;" horiz-adv-x="460" d="M-68 1212q0 43 31 74t74 31t73.5 -31t30.5 -74q0 -44 -30.5 -74t-73.5 -30t-74 30t-31 74zM158 0v993h151v-993h-151zM319 1212q0 43 32 74t75 31q42 0 72 -31t30 -74q0 -44 -29.5 -74t-72.5 -30t-75 30t-32 74z" />
<glyph unicode="&#xf0;" horiz-adv-x="1122" d="M135 494q0 114 23 203.5t71.5 159t132.5 107t199 37.5q77 0 150 -32l-86 186h-248v123h194l-116 258h141l115 -258h186v-123h-129q118 -248 158 -317q61 -118 61 -344q0 -114 -23 -205t-72 -161t-133 -108t-198 -38q-94 0 -167.5 26.5t-121.5 72.5t-79.5 112t-44.5 139.5 t-13 161.5zM272 494q0 -64 6.5 -115t25 -102t49.5 -84.5t83.5 -54.5t122.5 -21q72 0 125.5 21.5t84.5 56t50 85.5t25 101t6 113q0 64 -6.5 115t-25 101.5t-50 84t-84 54.5t-123.5 21q-72 0 -125 -21.5t-84 -56t-49.5 -85.5t-24.5 -101t-6 -112z" />
<glyph unicode="&#xf1;" horiz-adv-x="1058" d="M139 0v993h131l4 -110q44 66 116.5 98.5t146.5 32.5q403 0 403 -451v-563h-154v559q0 70 -11.5 121.5t-39 93.5t-79 64t-126.5 22q-99 0 -168 -66.5t-69 -150.5v-643h-154zM209 1204q41 62 84.5 91.5t109.5 29.5q41 0 76 -17t56 -37t52 -37t64 -17q64 0 109 77l86 -75 q-43 -61 -86.5 -92t-104.5 -31q-41 0 -76 17t-57 37t-53.5 37t-65.5 17q-35 0 -60 -20t-50 -56z" />
<glyph unicode="&#xf2;" horiz-adv-x="1028" d="M84 496q0 90 14 166t46 142t81.5 111t122.5 71t166 26q116 0 201 -39t134.5 -110t73 -162t23.5 -205t-23.5 -204.5t-73 -161.5t-134.5 -109.5t-201 -38.5t-200.5 38.5t-134 109.5t-72.5 161.5t-23 204.5zM240 496q0 -61 6 -109.5t23.5 -98t47 -82.5t79.5 -54t118 -21 q83 0 139.5 30t84.5 85t39 114t11 136q0 61 -6 109.5t-23.5 98t-47 83t-79.5 54.5t-118 21t-118 -21t-79.5 -54.5t-47 -83t-23.5 -98t-6 -109.5zM340 1409h176l172 -313h-123z" />
<glyph unicode="&#xf3;" horiz-adv-x="1028" d="M84 496q0 90 14 166t46 142t81.5 111t122.5 71t166 26q116 0 201 -39t134.5 -110t73 -162t23.5 -205t-23.5 -204.5t-73 -161.5t-134.5 -109.5t-201 -38.5t-200.5 38.5t-134 109.5t-72.5 161.5t-23 204.5zM240 496q0 -61 6 -109.5t23.5 -98t47 -82.5t79.5 -54t118 -21 q83 0 139.5 30t84.5 85t39 114t11 136q0 61 -6 109.5t-23.5 98t-47 83t-79.5 54.5t-118 21t-118 -21t-79.5 -54.5t-47 -83t-23.5 -98t-6 -109.5zM340 1096l174 313h174l-223 -313h-125z" />
<glyph unicode="&#xf4;" horiz-adv-x="1028" d="M84 496q0 90 14 166t46 142t81.5 111t122.5 71t166 26q116 0 201 -39t134.5 -110t73 -162t23.5 -205t-23.5 -204.5t-73 -161.5t-134.5 -109.5t-201 -38.5t-200.5 38.5t-134 109.5t-72.5 161.5t-23 204.5zM213 1098l229 305h146l229 -305h-162l-141 219l-141 -219h-160z M240 496q0 -61 6 -109.5t23.5 -98t47 -82.5t79.5 -54t118 -21q83 0 139.5 30t84.5 85t39 114t11 136q0 61 -6 109.5t-23.5 98t-47 83t-79.5 54.5t-118 21t-118 -21t-79.5 -54.5t-47 -83t-23.5 -98t-6 -109.5z" />
<glyph unicode="&#xf5;" horiz-adv-x="1028" d="M84 496q0 90 14 166t46 142t81.5 111t122.5 71t166 26q116 0 201 -39t134.5 -110t73 -162t23.5 -205t-23.5 -204.5t-73 -161.5t-134.5 -109.5t-201 -38.5t-200.5 38.5t-134 109.5t-72.5 161.5t-23 204.5zM197 1204q41 62 84.5 91.5t107.5 29.5q41 0 76.5 -17t57 -37 t52.5 -37t64 -17q61 0 109 77l86 -75q-46 -62 -88.5 -92.5t-104.5 -30.5q-40 0 -75 17t-56.5 37t-53 37t-65.5 17q-36 0 -60.5 -20t-49.5 -56zM240 496q0 -61 6 -109.5t23.5 -98t47 -82.5t79.5 -54t118 -21q83 0 139.5 30t84.5 85t39 114t11 136q0 61 -6 109.5t-23.5 98 t-47 83t-79.5 54.5t-118 21t-118 -21t-79.5 -54.5t-47 -83t-23.5 -98t-6 -109.5z" />
<glyph unicode="&#xf6;" horiz-adv-x="1028" d="M84 496q0 90 14 166t46 142t81.5 111t122.5 71t166 26q116 0 201 -39t134.5 -110t73 -162t23.5 -205t-23.5 -204.5t-73 -161.5t-134.5 -109.5t-201 -38.5t-200.5 38.5t-134 109.5t-72.5 161.5t-23 204.5zM217 1212q0 43 30.5 74t74.5 31q42 0 73 -31.5t31 -73.5 q0 -44 -31 -74t-73 -30q-44 0 -74.5 30t-30.5 74zM240 496q0 -61 6 -109.5t23.5 -98t47 -82.5t79.5 -54t118 -21q83 0 139.5 30t84.5 85t39 114t11 136q0 61 -6 109.5t-23.5 98t-47 83t-79.5 54.5t-118 21t-118 -21t-79.5 -54.5t-47 -83t-23.5 -98t-6 -109.5zM604 1212 q0 43 31.5 74t75.5 31q41 0 71.5 -31t30.5 -74q0 -44 -30 -74t-72 -30q-45 0 -76 30t-31 74z" />
<glyph unicode="&#xf7;" horiz-adv-x="1073" d="M115 500v123h843v-123h-843zM432 236q0 41 29.5 70.5t70.5 29.5t71 -29.5t30 -70.5t-30 -71t-71 -30t-70.5 30t-29.5 71zM432 887q0 41 29.5 70.5t70.5 29.5t71 -29.5t30 -70.5t-30 -71t-71 -30t-70.5 30t-29.5 71z" />
<glyph unicode="&#xf8;" horiz-adv-x="1083" d="M84 494q0 90 14 166t46 142t81.5 111t122.5 71t166 26q110 0 195 -43l26 47h123l-53 -101q141 -137 141 -419q0 -90 -14 -166t-46.5 -141t-81.5 -109.5t-122.5 -70t-167.5 -25.5q-114 0 -197 41l-24 -41h-119l49 94q-139 139 -139 418zM240 494q0 -159 63 -256l336 589 q-55 31 -125 31q-67 1 -117.5 -20t-80 -54.5t-47 -83t-23.5 -98t-6 -108.5zM387 164q54 -33 127 -33q67 -1 117.5 20t80 54t47 82.5t23.5 98t6 108.5q0 161 -63 258z" />
<glyph unicode="&#xf9;" horiz-adv-x="1052" d="M119 416v577h153v-569q0 -144 54.5 -217.5t199.5 -73.5q89 0 164.5 57.5t75.5 147.5v655h154v-993h-132l-4 104q-109 -120 -260 -120q-209 0 -307 109t-98 323zM350 1409h176l174 -313h-125z" />
<glyph unicode="&#xfa;" horiz-adv-x="1052" d="M119 416v577h153v-569q0 -144 54.5 -217.5t199.5 -73.5q89 0 164.5 57.5t75.5 147.5v655h154v-993h-132l-4 104q-109 -120 -260 -120q-209 0 -307 109t-98 323zM350 1096l174 313h176l-225 -313h-125z" />
<glyph unicode="&#xfb;" horiz-adv-x="1052" d="M119 416v577h153v-569q0 -144 54.5 -217.5t199.5 -73.5q89 0 164.5 57.5t75.5 147.5v655h154v-993h-132l-4 104q-109 -120 -260 -120q-209 0 -307 109t-98 323zM223 1098l230 305h145l229 -305h-159l-144 219l-141 -219h-160z" />
<glyph unicode="&#xfc;" horiz-adv-x="1052" d="M119 416v577h153v-569q0 -144 54.5 -217.5t199.5 -73.5q89 0 164.5 57.5t75.5 147.5v655h154v-993h-132l-4 104q-109 -120 -260 -120q-209 0 -307 109t-98 323zM227 1212q0 43 31 74t74 31t73.5 -31t30.5 -74q0 -44 -30.5 -74t-73.5 -30t-74 30t-31 74zM614 1212 q0 43 32 74t75 31q42 0 72 -31t30 -74q0 -44 -29.5 -74t-72.5 -30t-75 30t-32 74z" />
<glyph unicode="&#xfd;" horiz-adv-x="987" d="M43 993h166l283 -800l288 800h164l-467 -1237q-42 -116 -120 -162.5t-203 -46.5h-29v136h27q82 0 122.5 28t65.5 92l72 193zM317 1096l175 313h176l-224 -313h-127z" />
<glyph unicode="&#xfe;" horiz-adv-x="1052" d="M162 -438v1868h157v-517q85 103 238 103q92 0 164 -28t118 -75t76.5 -114t43 -140.5t12.5 -158.5q0 -110 -22 -200t-68.5 -162.5t-128.5 -113t-193 -40.5q-159 0 -240 98v-520h-157zM319 354q0 -98 69.5 -155.5t168.5 -57.5q65 0 113.5 22.5t75 56.5t42.5 84.5t20.5 95 t4.5 100.5q0 58 -5 104t-21 96t-43 83.5t-75 55t-112 21.5q-101 0 -169.5 -59.5t-68.5 -155.5v-291z" />
<glyph unicode="&#xff;" horiz-adv-x="987" d="M43 993h166l283 -800l288 800h164l-467 -1237q-42 -116 -120 -162.5t-203 -46.5h-29v136h27q82 0 122.5 28t65.5 92l72 193zM195 1212q0 43 30.5 74t73.5 31t73.5 -31t30.5 -74q0 -44 -30.5 -74t-73.5 -30t-73.5 30t-30.5 74zM584 1212q0 43 30.5 74t73.5 31t74 -31 t31 -74q0 -44 -31 -74t-74 -30t-73.5 30t-30.5 74z" />
<glyph unicode="&#x152;" horiz-adv-x="2064" d="M88 715q0 117 18.5 221t61 199.5t107 163.5t163 108.5t221.5 40.5q125 0 236 -55t174 -176v213h889v-162h-727v-449h631v-157h-631v-500h727v-162h-889v217q-67 -126 -176 -180.5t-234 -54.5q-123 0 -221.5 40.5t-163 108.5t-107 163.5t-61 199.5t-18.5 221zM250 715 q0 -86 9.5 -161.5t37.5 -153.5t72 -132.5t118 -89.5t172 -35t172 35t118 89.5t71.5 132.5t37 153t9.5 162t-9.5 162t-37 153t-71.5 132.5t-118 89t-172 34.5t-172 -34.5t-118 -89t-72 -132t-37.5 -153t-9.5 -162.5z" />
<glyph unicode="&#x153;" horiz-adv-x="1673" d="M84 494q0 114 23 205t71.5 162.5t132 110t197.5 38.5q237 0 352 -201q121 199 350 199q100 0 175.5 -39.5t119 -108t65 -151.5t21.5 -179v-65h-657q13 -338 293 -338q66 0 128.5 29t108.5 80l109 -103q-142 -151 -346 -151q-245 0 -365 198q-116 -198 -354 -198 q-114 0 -197.5 38t-132 108.5t-71.5 161t-23 204.5zM238 494q0 -76 10.5 -134.5t38 -113.5t83.5 -85t138 -30q81 0 137 30t83.5 84.5t38.5 113.5t11 135q0 60 -6 109t-24 98t-47 82.5t-78 54t-115 20.5t-115.5 -21t-78.5 -54t-46.5 -82.5t-23.5 -98t-6 -108.5zM936 571h510 q-14 293 -240 293q-243 0 -270 -293z" />
<glyph unicode="&#x178;" horiz-adv-x="1202" d="M47 1430h182l373 -771l373 771h182l-473 -957v-473h-164v473zM303 1665q0 43 30 73.5t73 30.5t73.5 -30.5t30.5 -73.5q0 -44 -30.5 -74t-73.5 -30t-73 30t-30 74zM690 1665q0 43 31 73.5t74 30.5t73.5 -30.5t30.5 -73.5q0 -44 -30.5 -74t-73.5 -30t-74 30t-31 74z" />
<glyph unicode="&#x2c6;" horiz-adv-x="1050" d="M221 1098l228 305h147l229 -305h-161l-142 219l-141 -219h-160z" />
<glyph unicode="&#x2dc;" horiz-adv-x="1048" d="M201 1204q41 62 85 91.5t109 29.5q41 0 76.5 -17t57 -37t52.5 -37t64 -17q61 0 109 77l86 -75q-45 -61 -88.5 -92t-104.5 -31q-40 0 -75.5 17t-57 37t-53.5 37t-66 17t-58.5 -20t-49.5 -56z" />
<glyph unicode="&#x2000;" horiz-adv-x="994" />
<glyph unicode="&#x2001;" horiz-adv-x="1989" />
<glyph unicode="&#x2002;" horiz-adv-x="994" />
<glyph unicode="&#x2003;" horiz-adv-x="1989" />
<glyph unicode="&#x2004;" horiz-adv-x="663" />
<glyph unicode="&#x2005;" horiz-adv-x="497" />
<glyph unicode="&#x2006;" horiz-adv-x="331" />
<glyph unicode="&#x2007;" horiz-adv-x="331" />
<glyph unicode="&#x2008;" horiz-adv-x="248" />
<glyph unicode="&#x2009;" horiz-adv-x="397" />
<glyph unicode="&#x200a;" horiz-adv-x="110" />
<glyph unicode="&#x2010;" horiz-adv-x="821" d="M129 492v129h563v-129h-563z" />
<glyph unicode="&#x2011;" horiz-adv-x="821" d="M129 492v129h563v-129h-563z" />
<glyph unicode="&#x2012;" horiz-adv-x="821" d="M129 492v129h563v-129h-563z" />
<glyph unicode="&#x2013;" horiz-adv-x="1105" d="M117 492v129h870v-129h-870z" />
<glyph unicode="&#x2014;" horiz-adv-x="1605" d="M117 492v129h1372v-129h-1372z" />
<glyph unicode="&#x2018;" horiz-adv-x="505" d="M162 1182l12 100l137 225h49l-12 -325q-2 -39 -29 -67t-65 -28q-39 0 -67.5 28.5t-24.5 66.5z" />
<glyph unicode="&#x2019;" horiz-adv-x="505" d="M147 1100l11 323q2 39 29 67t65 28q39 0 68 -28.5t26 -64.5l-12 -100l-139 -227z" />
<glyph unicode="&#x201a;" horiz-adv-x="505" d="M156 -211l10 324q1 40 28 67t64 27q41 0 69.5 -27.5t24.5 -64.5l-10 -101l-137 -225h-49z" />
<glyph unicode="&#x201c;" horiz-adv-x="819" d="M143 1182l13 100l137 225h49l-12 -325q-2 -39 -29 -67t-65 -28q-39 0 -68 28.5t-25 66.5zM483 1182l13 100l137 225h49l-12 -325q-2 -39 -29.5 -67t-65.5 -28q-39 0 -67.5 28.5t-24.5 66.5z" />
<glyph unicode="&#x201d;" horiz-adv-x="819" d="M137 1087l13 326q2 39 29 66.5t65 27.5q39 0 67.5 -28t24.5 -66l-12 -100l-138 -226h-49zM477 1087l12 326q2 39 29.5 66.5t65.5 27.5q39 0 67.5 -28t24.5 -66l-12 -100l-138 -226h-49z" />
<glyph unicode="&#x201e;" horiz-adv-x="819" d="M137 -236l13 326q2 39 29 66.5t65 27.5q39 0 67.5 -28t24.5 -66l-12 -100l-138 -226h-49zM477 -236l12 326q2 39 29.5 66.5t65.5 27.5q39 0 67.5 -28t24.5 -66l-12 -100l-138 -226h-49z" />
<glyph unicode="&#x2022;" horiz-adv-x="983" d="M168 688q0 134 95 229t229 95q135 0 229 -95t94 -229q0 -135 -94 -229t-229 -94q-134 0 -229 94t-95 229z" />
<glyph unicode="&#x2026;" horiz-adv-x="1255" d="M145 98q0 47 34 82t81 35q49 0 84 -34.5t35 -82.5q0 -49 -34.5 -82.5t-84.5 -33.5q-48 0 -81.5 33.5t-33.5 82.5zM510 98q0 48 35 82.5t84 34.5q47 0 81.5 -35t34.5 -82q0 -49 -34 -82.5t-82 -33.5q-50 0 -84.5 33.5t-34.5 82.5zM879 98q0 47 34.5 82t81.5 35t82 -35 t35 -82q0 -49 -34.5 -82.5t-82.5 -33.5t-82 33.5t-34 82.5z" />
<glyph unicode="&#x202f;" horiz-adv-x="397" />
<glyph unicode="&#x2039;" horiz-adv-x="663" d="M106 465v108l441 408v-170l-320 -291l320 -293v-172z" />
<glyph unicode="&#x203a;" horiz-adv-x="663" d="M106 55v172l320 293l-320 291v170l441 -408v-108z" />
<glyph unicode="&#x205f;" horiz-adv-x="497" />
<glyph unicode="&#x20ac;" horiz-adv-x="1333" d="M100 485l25 119h115q-5 83 -2 178h-138l25 117h129q18 119 61.5 217.5t112.5 173.5t170.5 116.5t226.5 41.5q131 0 226 -42.5t180 -133.5l-109 -119q-68 68 -136 100.5t-161 32.5q-169 0 -269.5 -105t-129.5 -282h467l-25 -117h-465q-2 -97 5 -178h485l-25 -119h-438 q39 -160 140 -251t255 -91q93 0 163.5 34.5t139.5 105.5l107 -117q-92 -100 -181 -142t-229 -42q-225 0 -372.5 135.5t-194.5 367.5h-158z" />
<glyph unicode="&#x2122;" horiz-adv-x="978" d="M94 1368v62h318v-62h-129v-369h-62v369h-127zM471 999v431h61l136 -345l137 345h63v-431h-63v283l-111 -283h-51l-111 283v-283h-61z" />
<glyph unicode="&#xe000;" horiz-adv-x="993" d="M0 0v993h993v-993h-993z" />
<glyph unicode="&#xfb01;" horiz-adv-x="1097" d="M102 860v133h101v88q0 165 87 252t285 97v-130q-123 -7 -173 -65.5t-50 -185.5v-56h586v-993h-154v860h-432v-860h-149v860h-101zM756 1348q0 46 31 77t75 31q45 0 77 -31.5t32 -76.5q0 -43 -32.5 -75t-76.5 -32t-75 32t-31 75z" />
</font>
</defs>
</svg>
